# xmcd
#
# Track frame offsets: 
#        150
#        24950
#        53410
#        79678
#        104974
#        131778
#        155714
#        180218
#        209082
#        233726
#        258834
#
# Disc length: 3776 seconds
#
# Revision: 0
# Processed by: cddbd v1.5.2PL0 Copyright (c) Steve Scherf et al.
# Submitted via: ExactAudioCopy v1.0b6
#
DISCID=8e0ebe0b
DTITLE=劉星  - 一意孤行
DYEAR=1900
DGENRE=
TTITLE0=閒雲孤鶴
TTITLE1=無所不至
TTITLE2=孤芳自賞
TTITLE3=虛懷若谷   
TTITLE4=一息尚存
TTITLE5=輪迴
TTITLE6=行雲流水
TTITLE7=即興曲(一)
TTITLE8=遙遙長路
TTITLE9=一意孤行
TTITLE10=即興曲(二)
EXTD=
EXTT0=
EXTT1=
EXTT2=
EXTT3=
EXTT4=
EXTT5=
EXTT6=
EXTT7=
EXTT8=
EXTT9=
EXTT10=
PLAYORDER=
